<mxfile host="app.diagrams.net" modified="2021-11-01T01:31:45.922Z" agent="5.0 (Windows NT 10.0; Win64; x64) AppleWebKit/537.36 (KHTML, like Gecko) Chrome/95.0.4638.54 Safari/537.36" etag="QHdpaXKaNSLF_fw8BLwT" version="15.6.3" type="github">
  <diagram id="C5RBs43oDa-KdzZeNtuy" name="Page-1">
    <mxGraphModel dx="1278" dy="579" grid="1" gridSize="10" guides="1" tooltips="1" connect="1" arrows="1" fold="1" page="1" pageScale="1" pageWidth="827" pageHeight="1169" math="0" shadow="0">
      <root>
        <mxCell id="WIyWlLk6GJQsqaUBKTNV-0" />
        <mxCell id="WIyWlLk6GJQsqaUBKTNV-1" parent="WIyWlLk6GJQsqaUBKTNV-0" />
        <mxCell id="HYRUvDo-WW4A1hWBDUUl-0" value="«interface»&lt;br&gt;&lt;b&gt;winningStrategy()&lt;/b&gt;" style="html=1;" vertex="1" parent="WIyWlLk6GJQsqaUBKTNV-1">
          <mxGeometry x="320" y="110" width="110" height="50" as="geometry" />
        </mxCell>
        <mxCell id="HYRUvDo-WW4A1hWBDUUl-1" value="DynamicStrategy" style="swimlane;fontStyle=0;childLayout=stackLayout;horizontal=1;startSize=26;fillColor=none;horizontalStack=0;resizeParent=1;resizeParentMax=0;resizeLast=0;collapsible=1;marginBottom=0;" vertex="1" parent="WIyWlLk6GJQsqaUBKTNV-1">
          <mxGeometry x="190" y="210" width="140" height="52" as="geometry" />
        </mxCell>
        <mxCell id="HYRUvDo-WW4A1hWBDUUl-6" value="ConquerWInningStrat" style="swimlane;fontStyle=0;childLayout=stackLayout;horizontal=1;startSize=26;fillColor=none;horizontalStack=0;resizeParent=1;resizeParentMax=0;resizeLast=0;collapsible=1;marginBottom=0;" vertex="1" parent="WIyWlLk6GJQsqaUBKTNV-1">
          <mxGeometry x="390" y="220" width="140" height="52" as="geometry" />
        </mxCell>
        <mxCell id="HYRUvDo-WW4A1hWBDUUl-10" value="RoundsWonWinningStrat" style="swimlane;fontStyle=0;childLayout=stackLayout;horizontal=1;startSize=26;fillColor=none;horizontalStack=0;resizeParent=1;resizeParentMax=0;resizeLast=0;collapsible=1;marginBottom=0;" vertex="1" parent="WIyWlLk6GJQsqaUBKTNV-1">
          <mxGeometry x="550" y="220" width="140" height="52" as="geometry" />
        </mxCell>
        <mxCell id="HYRUvDo-WW4A1hWBDUUl-14" value="" style="endArrow=diamondThin;endFill=0;endSize=24;html=1;rounded=0;entryX=0.5;entryY=0;entryDx=0;entryDy=0;exitX=0;exitY=0.5;exitDx=0;exitDy=0;edgeStyle=orthogonalEdgeStyle;" edge="1" parent="WIyWlLk6GJQsqaUBKTNV-1" source="HYRUvDo-WW4A1hWBDUUl-0" target="HYRUvDo-WW4A1hWBDUUl-1">
          <mxGeometry width="160" relative="1" as="geometry">
            <mxPoint x="140" y="110" as="sourcePoint" />
            <mxPoint x="250" y="40" as="targetPoint" />
          </mxGeometry>
        </mxCell>
        <mxCell id="HYRUvDo-WW4A1hWBDUUl-15" value="" style="endArrow=block;dashed=1;endFill=0;endSize=12;html=1;rounded=0;exitX=1;exitY=0.5;exitDx=0;exitDy=0;edgeStyle=orthogonalEdgeStyle;" edge="1" parent="WIyWlLk6GJQsqaUBKTNV-1" source="HYRUvDo-WW4A1hWBDUUl-1">
          <mxGeometry width="160" relative="1" as="geometry">
            <mxPoint x="200" y="400" as="sourcePoint" />
            <mxPoint x="358" y="160" as="targetPoint" />
          </mxGeometry>
        </mxCell>
        <mxCell id="HYRUvDo-WW4A1hWBDUUl-16" value="" style="endArrow=block;dashed=1;endFill=0;endSize=12;html=1;rounded=0;exitX=0.5;exitY=0;exitDx=0;exitDy=0;entryX=0.593;entryY=1.044;entryDx=0;entryDy=0;entryPerimeter=0;edgeStyle=orthogonalEdgeStyle;" edge="1" parent="WIyWlLk6GJQsqaUBKTNV-1" source="HYRUvDo-WW4A1hWBDUUl-6" target="HYRUvDo-WW4A1hWBDUUl-0">
          <mxGeometry width="160" relative="1" as="geometry">
            <mxPoint x="340" y="246" as="sourcePoint" />
            <mxPoint x="384.78" y="177.79999999999995" as="targetPoint" />
            <Array as="points">
              <mxPoint x="460" y="199" />
              <mxPoint x="385" y="199" />
            </Array>
          </mxGeometry>
        </mxCell>
        <mxCell id="HYRUvDo-WW4A1hWBDUUl-18" value="" style="endArrow=block;dashed=1;endFill=0;endSize=12;html=1;rounded=0;exitX=0.5;exitY=0;exitDx=0;exitDy=0;edgeStyle=orthogonalEdgeStyle;entryX=0.75;entryY=1;entryDx=0;entryDy=0;" edge="1" parent="WIyWlLk6GJQsqaUBKTNV-1" target="HYRUvDo-WW4A1hWBDUUl-0">
          <mxGeometry width="160" relative="1" as="geometry">
            <mxPoint x="624.8" y="217.8" as="sourcePoint" />
            <mxPoint x="400" y="190" as="targetPoint" />
            <Array as="points">
              <mxPoint x="625" y="190" />
              <mxPoint x="403" y="190" />
            </Array>
          </mxGeometry>
        </mxCell>
      </root>
    </mxGraphModel>
  </diagram>
</mxfile>
